<svg width="67" height="19" viewBox="0 0 67 19" fill="none" xmlns="http://www.w3.org/2000/svg">
<path d="M13.6714 17.9376V7.61079L9.93619 15.1301H7.739L4.00377 7.61079V17.9376H0V0.604183H4.34556L8.83759 9.6615L13.354 0.604183H17.6752V17.9376H13.6714Z" fill="white"/>
<path d="M26.5753 18.1817C25.1105 18.1817 23.8655 17.8725 22.8401 17.254C21.831 16.6355 21.058 15.8218 20.5209 14.8127C19.9838 13.8036 19.7152 12.7132 19.7152 11.5413C19.7152 10.3532 19.9838 9.25461 20.5209 8.24553C21.058 7.23645 21.8392 6.42267 22.8645 5.8042C23.8899 5.18573 25.1268 4.8765 26.5753 4.8765C28.0239 4.8765 29.2608 5.18573 30.2862 5.8042C31.3115 6.42267 32.0927 7.23645 32.6298 8.24553C33.1669 9.25461 33.4355 10.3532 33.4355 11.5413C33.4355 12.7132 33.1669 13.8036 32.6298 14.8127C32.0927 15.8218 31.3115 16.6355 30.2862 17.254C29.2608 17.8725 28.0239 18.1817 26.5753 18.1817ZM23.719 11.5413C23.719 12.5341 23.9875 13.3398 24.5246 13.9582C25.078 14.5767 25.7616 14.8859 26.5753 14.8859C27.3728 14.8859 28.0401 14.5767 28.5772 13.9582C29.1306 13.3398 29.4073 12.5341 29.4073 11.5413C29.4073 10.5485 29.1306 9.74287 28.5772 9.1244C28.0401 8.50594 27.3728 8.1967 26.5753 8.1967C25.7616 8.1967 25.078 8.50594 24.5246 9.1244C23.9875 9.74287 23.719 10.5485 23.719 11.5413Z" fill="white"/>
<path d="M43.0385 18.0597C41.8992 18.0597 40.825 17.8481 39.8159 17.4249C38.8231 16.9855 37.9361 16.3751 37.1549 15.5939C36.3899 14.7964 35.7877 13.8606 35.3483 12.7864C34.9251 11.6959 34.7135 10.4834 34.7135 9.14882C34.7135 7.94443 34.9251 6.82142 35.3483 5.77979C35.7877 4.73816 36.398 3.81859 37.1793 3.0211C37.9768 2.2236 38.8963 1.60513 39.938 1.16569C40.9959 0.709973 42.1352 0.482117 43.3558 0.482117C44.9508 0.482117 46.3505 0.823903 47.5549 1.50747C48.7756 2.19104 49.687 3.11061 50.2892 4.26617L47.3108 6.51219C46.9202 5.74724 46.3505 5.14505 45.6018 4.70561C44.8532 4.26617 44.0557 4.04645 43.2093 4.04645C42.3305 4.04645 41.5574 4.28244 40.8901 4.75443C40.2228 5.21015 39.702 5.83676 39.3276 6.63426C38.9533 7.43176 38.7661 8.31877 38.7661 9.2953C38.7661 10.2881 38.9614 11.1833 39.3521 11.9808C39.7427 12.762 40.2798 13.3804 40.9633 13.8362C41.6632 14.2756 42.4688 14.4953 43.3802 14.4953C44.9427 14.4953 46.3505 13.7792 47.6037 12.347V11.7855H44.2347V8.88027H50.9239V17.9376H47.6037V16.2287C46.2854 17.4493 44.7637 18.0597 43.0385 18.0597Z" fill="white"/>
<path d="M59.3568 18.1817C57.892 18.1817 56.6469 17.8725 55.6216 17.254C54.6125 16.6355 53.8394 15.8218 53.3023 14.8127C52.7652 13.8036 52.4967 12.7132 52.4967 11.5413C52.4967 10.3532 52.7652 9.25461 53.3023 8.24553C53.8394 7.23645 54.6206 6.42267 55.646 5.8042C56.6713 5.18573 57.9083 4.8765 59.3568 4.8765C60.8053 4.8765 62.0423 5.18573 63.0676 5.8042C64.093 6.42267 64.8742 7.23645 65.4113 8.24553C65.9484 9.25461 66.2169 10.3532 66.2169 11.5413C66.2169 12.7132 65.9484 13.8036 65.4113 14.8127C64.8742 15.8218 64.093 16.6355 63.0676 17.254C62.0423 17.8725 60.8053 18.1817 59.3568 18.1817ZM56.5005 11.5413C56.5005 12.5341 56.769 13.3398 57.3061 13.9582C57.8595 14.5767 58.543 14.8859 59.3568 14.8859C60.1543 14.8859 60.8216 14.5767 61.3587 13.9582C61.9121 13.3398 62.1887 12.5341 62.1887 11.5413C62.1887 10.5485 61.9121 9.74287 61.3587 9.1244C60.8216 8.50594 60.1543 8.1967 59.3568 8.1967C58.543 8.1967 57.8595 8.50594 57.3061 9.1244C56.769 9.74287 56.5005 10.5485 56.5005 11.5413Z" fill="white"/>
</svg>
