<svg width="14" height="14" viewBox="0 0 14 14" fill="none" xmlns="http://www.w3.org/2000/svg">
<path d="M5.05131 10.298C4.07833 10.298 3.12722 10.0093 2.31841 9.46848C1.50959 8.92764 0.879437 8.15898 0.507717 7.2598C0.135996 6.36063 0.0394269 5.37138 0.230235 4.41729C0.421043 3.4632 0.890649 2.58718 1.5796 1.90013C2.26855 1.21308 3.14586 0.745901 4.10047 0.557729C5.05508 0.369557 6.04406 0.468859 6.94221 0.843062C7.84035 1.21726 8.60727 1.84954 9.14587 2.65985C9.68448 3.47015 9.97055 4.42205 9.96786 5.39503C9.96249 6.69607 9.44234 7.9421 8.52108 8.86082C7.59982 9.77953 6.35236 10.2962 5.05131 10.298V10.298ZM5.05131 1.14305C4.21361 1.14306 3.39469 1.3913 2.69799 1.85642C2.00128 2.32155 1.45803 2.9827 1.13684 3.75638C0.815649 4.53006 0.730926 5.38156 0.89337 6.20336C1.05581 7.02516 1.45814 7.78039 2.04953 8.37368C2.64093 8.96697 3.39487 9.37171 4.21615 9.53677C5.03743 9.70184 5.8892 9.61984 6.6639 9.30112C7.4386 8.98241 8.10148 8.44127 8.56883 7.74605C9.03618 7.05084 9.28704 6.23272 9.28972 5.39503C9.28972 4.27093 8.84317 3.19287 8.04831 2.39802C7.25346 1.60316 6.1754 1.15662 5.05131 1.15662V1.14305Z" fill="white"/>
<path d="M12.6812 13.3633C12.6368 13.3638 12.5927 13.355 12.5518 13.3375C12.5109 13.32 12.4741 13.2941 12.4439 13.2615L8.04949 8.86714C7.98654 8.8042 7.95117 8.71882 7.95117 8.62979C7.95117 8.54077 7.98654 8.45539 8.04949 8.39244C8.11244 8.32949 8.19781 8.29413 8.28684 8.29413C8.37586 8.29413 8.46124 8.32949 8.52419 8.39244L12.9186 12.7868C12.951 12.8173 12.9769 12.854 12.9945 12.8949C13.0122 12.9357 13.0213 12.9797 13.0213 13.0242C13.0213 13.0687 13.0122 13.1127 12.9945 13.1535C12.9769 13.1943 12.951 13.2311 12.9186 13.2615C12.8883 13.2941 12.8515 13.32 12.8107 13.3375C12.7698 13.355 12.7257 13.3638 12.6812 13.3633V13.3633Z" fill="white"/>
</svg>
