<svg width="22" height="16" viewBox="0 0 22 16" fill="none" xmlns="http://www.w3.org/2000/svg">
<path d="M15.3892 11.31H11.1992C11.0666 11.31 10.9394 11.2573 10.8457 11.1636C10.7519 11.0698 10.6992 10.9426 10.6992 10.81C10.6992 10.6774 10.7519 10.5502 10.8457 10.4564C10.9394 10.3627 11.0666 10.31 11.1992 10.31H15.3892C15.5218 10.31 15.649 10.3627 15.7428 10.4564C15.8365 10.5502 15.8892 10.6774 15.8892 10.81C15.8892 10.9426 15.8365 11.0698 15.7428 11.1636C15.649 11.2573 15.5218 11.31 15.3892 11.31Z" fill="white"/>
<path d="M18.2099 11C18.1507 11.0141 18.0891 11.0141 18.0299 11C17.9683 10.9778 17.9118 10.9435 17.8636 10.899C17.8155 10.8546 17.7768 10.8009 17.7497 10.7413C17.7227 10.6816 17.7079 10.6171 17.7062 10.5516C17.7045 10.4862 17.716 10.421 17.7399 10.36L20.1199 4.00002C20.167 3.87723 20.2606 3.77793 20.3804 3.72365C20.5002 3.66937 20.6365 3.66447 20.7599 3.71002C20.8837 3.75932 20.9838 3.85423 21.0396 3.97518C21.0954 4.09612 21.1027 4.23387 21.0599 4.36002L18.6799 10.69C18.6396 10.7814 18.5739 10.8592 18.4905 10.9141C18.4072 10.9691 18.3098 10.9989 18.2099 11V11Z" fill="white"/>
<path d="M7.99965 11.19C7.89531 11.1907 7.79347 11.1582 7.70893 11.097C7.62439 11.0359 7.56159 10.9493 7.52965 10.85L4.38965 1.31H1.38965C1.25704 1.31 1.12986 1.25732 1.0361 1.16355C0.942327 1.06978 0.889648 0.942606 0.889648 0.809998C0.892209 0.678191 0.945709 0.552496 1.03893 0.459277C1.13215 0.366058 1.25784 0.312558 1.38965 0.309998H4.74965C4.85326 0.312207 4.95373 0.345927 5.0377 0.406667C5.12166 0.467407 5.18513 0.552285 5.21965 0.649998L8.50965 10.53C8.53156 10.5917 8.5409 10.6571 8.53711 10.7224C8.53333 10.7878 8.51649 10.8517 8.48759 10.9104C8.4587 10.9691 8.41833 11.0215 8.36888 11.0643C8.31942 11.1072 8.26188 11.1397 8.19965 11.16C8.13612 11.185 8.06773 11.1953 7.99965 11.19V11.19Z" fill="white"/>
<path d="M9.54004 15.69C8.9467 15.69 8.36668 15.5141 7.87333 15.1844C7.37998 14.8548 6.99546 14.3862 6.7684 13.8381C6.54134 13.2899 6.48193 12.6867 6.59768 12.1047C6.71344 11.5228 6.99916 10.9882 7.41872 10.5687C7.83828 10.1491 8.37283 9.8634 8.95477 9.74765C9.53671 9.63189 10.1399 9.6913 10.6881 9.91837C11.2363 10.1454 11.7048 10.5299 12.0344 11.0233C12.3641 11.5166 12.54 12.0967 12.54 12.69C12.54 13.4857 12.224 14.2487 11.6614 14.8113C11.0988 15.3739 10.3357 15.69 9.54004 15.69V15.69ZM9.54004 10.69C9.14448 10.69 8.7578 10.8073 8.4289 11.0271C8.1 11.2468 7.84366 11.5592 7.69228 11.9246C7.54091 12.2901 7.5013 12.6922 7.57847 13.0802C7.65564 13.4681 7.84612 13.8245 8.12583 14.1042C8.40553 14.3839 8.7619 14.5744 9.14986 14.6516C9.53782 14.7287 9.93995 14.6891 10.3054 14.5378C10.6709 14.3864 10.9832 14.13 11.203 13.8011C11.4227 13.4722 11.54 13.0856 11.54 12.69C11.54 12.1596 11.3293 11.6509 10.9543 11.2758C10.5792 10.9007 10.0705 10.69 9.54004 10.69Z" fill="white"/>
<path d="M17.0498 15.69C16.4565 15.69 15.8764 15.5141 15.3831 15.1844C14.8897 14.8548 14.5052 14.3862 14.2782 13.8381C14.0511 13.2899 13.9917 12.6867 14.1075 12.1047C14.2232 11.5228 14.5089 10.9882 14.9285 10.5687C15.348 10.1491 15.8826 9.8634 16.4645 9.74765C17.0465 9.63189 17.6497 9.6913 18.1979 9.91837C18.746 10.1454 19.2146 10.5299 19.5442 11.0233C19.8739 11.5166 20.0498 12.0967 20.0498 12.69C20.0498 13.4857 19.7337 14.2487 19.1711 14.8113C18.6085 15.3739 17.8455 15.69 17.0498 15.69V15.69ZM17.0498 10.69C16.6542 10.69 16.2676 10.8073 15.9387 11.0271C15.6098 11.2468 15.3534 11.5592 15.202 11.9246C15.0507 12.2901 15.0111 12.6922 15.0882 13.0802C15.1654 13.4681 15.3559 13.8245 15.6356 14.1042C15.9153 14.3839 16.2717 14.5744 16.6596 14.6516C17.0476 14.7287 17.4497 14.6891 17.8152 14.5378C18.1806 14.3864 18.493 14.13 18.7127 13.8011C18.9325 13.4722 19.0498 13.0856 19.0498 12.69C19.0498 12.1596 18.8391 11.6509 18.464 11.2758C18.0889 10.9007 17.5802 10.69 17.0498 10.69Z" fill="white"/>
</svg>
