<svg width="24" height="24" viewBox="0 0 24 24" fill="none" xmlns="http://www.w3.org/2000/svg">
<path d="M16.3892 15.31H12.1992C12.0666 15.31 11.9394 15.2573 11.8457 15.1636C11.7519 15.0698 11.6992 14.9426 11.6992 14.81C11.6992 14.6774 11.7519 14.5502 11.8457 14.4564C11.9394 14.3627 12.0666 14.31 12.1992 14.31H16.3892C16.5218 14.31 16.649 14.3627 16.7428 14.4564C16.8365 14.5502 16.8892 14.6774 16.8892 14.81C16.8892 14.9426 16.8365 15.0698 16.7428 15.1636C16.649 15.2573 16.5218 15.31 16.3892 15.31Z" fill="white"/>
<path d="M19.2099 15C19.1507 15.0141 19.0891 15.0141 19.0299 15C18.9683 14.9778 18.9118 14.9435 18.8636 14.899C18.8155 14.8546 18.7768 14.8009 18.7497 14.7413C18.7227 14.6816 18.7079 14.6171 18.7062 14.5516C18.7045 14.4862 18.716 14.421 18.7399 14.36L21.1199 8.00002C21.167 7.87723 21.2606 7.77793 21.3804 7.72365C21.5002 7.66937 21.6365 7.66447 21.7599 7.71002C21.8837 7.75932 21.9838 7.85423 22.0396 7.97518C22.0954 8.09612 22.1027 8.23387 22.0599 8.36002L19.6799 14.69C19.6396 14.7814 19.5739 14.8592 19.4905 14.9141C19.4072 14.9691 19.3098 14.9989 19.2099 15Z" fill="white"/>
<path d="M8.99965 15.19C8.89532 15.1907 8.79347 15.1582 8.70893 15.097C8.62439 15.0359 8.56159 14.9493 8.52965 14.85L5.38965 5.31H2.38965C2.25704 5.31 2.12986 5.25732 2.0361 5.16355C1.94233 5.06978 1.88965 4.94261 1.88965 4.81C1.89221 4.67819 1.94571 4.5525 2.03893 4.45928C2.13215 4.36606 2.25784 4.31256 2.38965 4.31H5.74965C5.85326 4.31221 5.95373 4.34593 6.0377 4.40667C6.12166 4.46741 6.18513 4.55229 6.21965 4.65L9.50965 14.53C9.53156 14.5917 9.5409 14.6571 9.53711 14.7224C9.53333 14.7878 9.51649 14.8517 9.48759 14.9104C9.4587 14.9691 9.41833 15.0215 9.36888 15.0643C9.31942 15.1072 9.26188 15.1397 9.19965 15.16C9.13612 15.185 9.06773 15.1953 8.99965 15.19Z" fill="white"/>
<path d="M10.54 19.69C9.9467 19.69 9.36668 19.5141 8.87333 19.1844C8.37998 18.8548 7.99546 18.3862 7.7684 17.8381C7.54134 17.2899 7.48193 16.6867 7.59768 16.1047C7.71344 15.5228 7.99916 14.9882 8.41872 14.5687C8.83828 14.1491 9.37283 13.8634 9.95477 13.7476C10.5367 13.6319 11.1399 13.6913 11.6881 13.9184C12.2363 14.1454 12.7048 14.5299 13.0344 15.0233C13.3641 15.5166 13.54 16.0967 13.54 16.69C13.54 17.4857 13.224 18.2487 12.6614 18.8113C12.0988 19.3739 11.3357 19.69 10.54 19.69ZM10.54 14.69C10.1445 14.69 9.7578 14.8073 9.4289 15.0271C9.1 15.2468 8.84366 15.5592 8.69228 15.9246C8.54091 16.2901 8.5013 16.6922 8.57847 17.0802C8.65564 17.4681 8.84612 17.8245 9.12583 18.1042C9.40553 18.3839 9.7619 18.5744 10.1499 18.6516C10.5378 18.7287 10.94 18.6891 11.3054 18.5378C11.6709 18.3864 11.9832 18.13 12.203 17.8011C12.4227 17.4722 12.54 17.0856 12.54 16.69C12.54 16.1596 12.3293 15.6509 11.9543 15.2758C11.5792 14.9007 11.0705 14.69 10.54 14.69Z" fill="white"/>
<path d="M18.0498 19.69C17.4565 19.69 16.8764 19.5141 16.3831 19.1844C15.8897 18.8548 15.5052 18.3862 15.2782 17.8381C15.0511 17.2899 14.9917 16.6867 15.1075 16.1047C15.2232 15.5228 15.5089 14.9882 15.9285 14.5687C16.348 14.1491 16.8826 13.8634 17.4645 13.7476C18.0465 13.6319 18.6497 13.6913 19.1979 13.9184C19.746 14.1454 20.2146 14.5299 20.5442 15.0233C20.8739 15.5166 21.0498 16.0967 21.0498 16.69C21.0498 17.4857 20.7337 18.2487 20.1711 18.8113C19.6085 19.3739 18.8455 19.69 18.0498 19.69ZM18.0498 14.69C17.6542 14.69 17.2676 14.8073 16.9387 15.0271C16.6098 15.2468 16.3534 15.5592 16.202 15.9246C16.0507 16.2901 16.0111 16.6922 16.0882 17.0802C16.1654 17.4681 16.3559 17.8245 16.6356 18.1042C16.9153 18.3839 17.2717 18.5744 17.6596 18.6516C18.0476 18.7287 18.4497 18.6891 18.8152 18.5378C19.1806 18.3864 19.493 18.13 19.7127 17.8011C19.9325 17.4722 20.0498 17.0856 20.0498 16.69C20.0498 16.1596 19.8391 15.6509 19.464 15.2758C19.0889 14.9007 18.5802 14.69 18.0498 14.69Z" fill="white"/>
</svg>
