<svg width="16" height="16" viewBox="0 0 16 16" fill="none" xmlns="http://www.w3.org/2000/svg">
<path d="M14.5592 0.205078H1.10274C0.87969 0.205078 0.665772 0.293686 0.508049 0.451409C0.350327 0.609132 0.261719 0.82305 0.261719 1.0461V14.5025C0.261719 14.7256 0.350327 14.9395 0.508049 15.0972C0.665772 15.2549 0.87969 15.3435 1.10274 15.3435H14.5592C14.7822 15.3435 14.9961 15.2549 15.1538 15.0972C15.3116 14.9395 15.4002 14.7256 15.4002 14.5025V1.0461C15.4002 0.82305 15.3116 0.609132 15.1538 0.451409C14.9961 0.293686 14.7822 0.205078 14.5592 0.205078ZM4.75195 13.1039H2.50473V5.87948H4.75195V13.1039ZM3.62834 4.89295C3.28306 4.89295 2.95191 4.75579 2.70776 4.51163C2.4636 4.26748 2.32644 3.93633 2.32644 3.59105C2.32644 3.24576 2.4636 2.91461 2.70776 2.67046C2.95191 2.4263 3.28306 2.28914 3.62834 2.28914C3.97363 2.28914 4.30478 2.4263 4.54893 2.67046C4.79309 2.91461 4.93025 3.24576 4.93025 3.59105C4.93025 3.93633 4.79309 4.26748 4.54893 4.51163C4.30478 4.75579 3.97363 4.89295 3.62834 4.89295ZM13.1614 13.1039H10.9167V9.59092C10.9167 8.75326 10.9015 7.67591 9.74933 7.67591C8.5803 7.67591 8.40285 8.58926 8.40285 9.53205V13.1047H6.15983V5.88032H8.31286V6.86768H8.34397C8.64254 6.29999 9.37591 5.70118 10.4667 5.70118C12.7409 5.70118 13.1605 7.19652 13.1605 9.14266V13.1039H13.1614Z" fill="#C6CBCD"/>
</svg>
