<svg width="18" height="14" viewBox="0 0 18 14" fill="none" xmlns="http://www.w3.org/2000/svg">
<path d="M15.4114 3.77616C15.4224 3.92423 15.4224 4.07147 15.4224 4.2187C15.4224 8.72447 11.993 13.9165 5.72552 13.9165C3.7946 13.9165 2.00075 13.3572 0.491211 12.3858C0.765365 12.4171 1.02936 12.4281 1.31452 12.4281C2.84859 12.4318 4.33922 11.9188 5.54613 10.9719C4.83488 10.959 4.14539 10.7243 3.57395 10.3006C3.00251 9.87694 2.57764 9.28538 2.35867 8.60854C2.56936 8.63985 2.7809 8.66101 3.0026 8.66101C3.30806 8.66101 3.61521 8.6187 3.90036 8.54508C3.12847 8.38923 2.43438 7.97084 1.93612 7.36104C1.43786 6.75125 1.16618 5.98771 1.16729 5.20023V5.15793C1.62167 5.41093 2.14883 5.56916 2.70729 5.59031C2.23944 5.27942 1.85582 4.85756 1.59065 4.36236C1.32548 3.86717 1.18701 3.31403 1.1876 2.75231C1.1876 2.11939 1.35598 1.53893 1.65129 1.03293C2.50771 2.0864 3.57587 2.94825 4.78657 3.56264C5.99728 4.17703 7.32353 4.53026 8.67944 4.59947C8.62698 4.34562 8.59483 4.08246 8.59483 3.81846C8.5946 3.37082 8.68261 2.92751 8.85381 2.5139C9.02502 2.10028 9.27606 1.72447 9.5926 1.40793C9.90913 1.0914 10.285 0.840351 10.6986 0.669146C11.1122 0.497941 11.5555 0.409934 12.0031 0.410157C12.9847 0.410157 13.8706 0.821387 14.4934 1.48646C15.2564 1.33891 15.9881 1.06036 16.6561 0.663157C16.4018 1.45077 15.869 2.11863 15.1576 2.54162C15.8343 2.46443 16.4957 2.28646 17.1198 2.01362C16.6537 2.69316 16.0761 3.28906 15.4114 3.77616Z" fill="#C6CBCD"/>
</svg>
