<svg width="184" height="27" viewBox="0 0 184 27" fill="none" xmlns="http://www.w3.org/2000/svg">
<path d="M16.0136 21.0865H7.81939L6.38839 25.7645H0L9.09706 0.723773H14.7188L23.884 25.7645H17.4616L16.0136 21.0865ZM9.25038 16.4258H14.5826L11.908 7.74067L9.25038 16.4258Z" fill="#656980"/>
<path d="M45.4001 17.2857C45.3206 19.0285 44.855 20.5706 44.0032 21.912C43.1514 23.242 41.9532 24.2739 40.4087 25.0077C38.8755 25.7415 37.1208 26.1084 35.1446 26.1084C31.8851 26.1084 29.3184 25.0364 27.4445 22.8923C25.5706 20.7483 24.6336 17.7214 24.6336 13.8117V12.5734C24.6336 10.1198 25.0538 7.97571 25.8943 6.14123C26.746 4.29528 27.9669 2.87356 29.5569 1.87606C31.1469 0.867092 32.9868 0.36261 35.0765 0.36261C38.0861 0.36261 40.5052 1.1652 42.3337 2.77037C44.1622 4.36407 45.2014 6.56545 45.4512 9.3745H39.4887C39.4433 7.84959 39.0629 6.75463 38.3474 6.08963C37.6319 5.42463 36.5416 5.09213 35.0765 5.09213C33.5887 5.09213 32.4984 5.65394 31.8056 6.77756C31.1129 7.90118 30.7494 9.69554 30.7154 12.1606V13.932C30.7154 16.6035 31.0447 18.5125 31.7034 19.6591C32.3735 20.8056 33.5206 21.3789 35.1446 21.3789C36.5189 21.3789 37.5694 21.0521 38.2962 20.3986C39.0231 19.7451 39.4092 18.7074 39.4547 17.2857H45.4001Z" fill="#656980"/>
<path d="M67.1888 5.3845H59.7442V25.7645H53.7647V5.3845H46.4563V0.723773H67.1888V5.3845Z" fill="#656980"/>
<path d="M76.0985 25.7645H70.136V0.723773H76.0985V25.7645Z" fill="#656980"/>
<path d="M89.8803 18.9539L94.8207 0.723773H101.499L93.1512 25.7645H86.6095L78.3301 0.723773H84.957L89.8803 18.9539Z" fill="#656980"/>
<path d="M118.705 15.1531H109.301V21.1209H120.408V25.7645H103.322V0.723773H120.442V5.3845H109.301V10.6644H118.705V15.1531Z" fill="#656980"/>
<path d="M123.454 25.7472V0.706575H129.979C132.648 0.706575 134.664 1.25692 136.026 2.35761C137.401 3.44683 138.088 5.0348 138.088 7.12153C138.088 8.63497 137.707 9.89045 136.946 10.8879C136.185 11.8854 135.112 12.5218 133.727 12.797C135.294 13.0033 136.6 13.6913 137.645 14.8607C138.69 16.0188 139.212 17.3488 139.212 18.8507C139.212 20.9833 138.525 22.6688 137.151 23.907C135.788 25.1338 133.886 25.7472 131.444 25.7472H123.454ZM124.374 13.3817V24.8185H131.546C133.647 24.8185 135.294 24.2969 136.486 23.2535C137.69 22.1987 138.292 20.7426 138.292 18.8851C138.292 17.3029 137.713 16.0016 136.555 14.9811C135.396 13.9492 133.846 13.4161 131.904 13.3817H124.374ZM124.374 12.453H130.319C132.58 12.453 134.283 12.0173 135.43 11.1459C136.577 10.2631 137.151 8.89868 137.151 7.05273C137.151 3.49843 134.828 1.69261 130.183 1.63528H124.374V12.453Z" fill="white"/>
<path d="M162.074 15.1015C162.074 17.2685 161.688 19.189 160.916 20.8629C160.155 22.5254 159.064 23.8153 157.645 24.7325C156.225 25.6383 154.59 26.0912 152.738 26.0912C149.945 26.0912 147.685 25.088 145.958 23.0815C144.232 21.0751 143.369 18.3692 143.369 14.9639V11.3523C143.369 9.19678 143.749 7.28204 144.51 5.60808C145.283 3.93412 146.378 2.64425 147.798 1.73847C149.229 0.82123 150.865 0.36261 152.704 0.36261C154.556 0.36261 156.191 0.82123 157.611 1.73847C159.042 2.64425 160.143 3.93985 160.916 5.62528C161.688 7.29924 162.074 9.20825 162.074 11.3523V15.1015ZM161.154 11.3179C161.154 8.29101 160.393 5.86605 158.871 4.04304C157.349 2.20856 155.294 1.29132 152.704 1.29132C150.149 1.29132 148.11 2.20282 146.589 4.02584C145.067 5.83739 144.306 8.30821 144.306 11.4383V15.1015C144.306 17.0965 144.647 18.8622 145.328 20.3986C146.021 21.9235 147.003 23.0987 148.275 23.9242C149.547 24.7497 151.035 25.1625 152.738 25.1625C155.328 25.1625 157.378 24.251 158.888 22.428C160.399 20.605 161.154 18.117 161.154 14.9639V11.3179Z" fill="white"/>
<path d="M174.374 12.2466L182.381 0.706575H183.539L174.953 12.9689L183.863 25.7472H182.721L174.374 13.6913L165.992 25.7472H164.885L173.795 12.9689L165.209 0.706575H166.367L174.374 12.2466Z" fill="white"/>
</svg>
