<svg width="104" height="15" viewBox="0 0 104 15" fill="none" xmlns="http://www.w3.org/2000/svg">
<path d="M9.01196 11.9378H4.40052L3.5952 14.5455H0L5.11956 0.586585H8.28333L13.4412 14.5455H9.82687L9.01196 11.9378ZM5.20584 9.33969H8.20663L6.70145 4.49816L5.20584 9.33969Z" fill="#656980"/>
<path d="M25.5499 9.81905C25.5051 10.7906 25.2431 11.6502 24.7637 12.398C24.2844 13.1394 23.6101 13.7146 22.7408 14.1237C21.878 14.5328 20.8905 14.7373 19.7784 14.7373C17.944 14.7373 16.4996 14.1397 15.445 12.9445C14.3904 11.7493 13.8631 10.0619 13.8631 7.88244V7.19216C13.8631 5.82439 14.0996 4.62918 14.5725 3.60655C15.0519 2.57752 15.739 1.78498 16.6338 1.22893C17.5286 0.666478 18.564 0.385254 19.74 0.385254C21.4338 0.385254 22.7951 0.832656 23.8242 1.72746C24.8532 2.61587 25.438 3.84303 25.5786 5.40894H22.2231C22.1975 4.55888 21.9834 3.94849 21.5808 3.57779C21.1781 3.20708 20.5645 3.02173 19.74 3.02173C18.9027 3.02173 18.2892 3.33491 17.8993 3.96128C17.5094 4.58764 17.3049 5.5879 17.2857 6.96207V7.94955C17.2857 9.43876 17.4711 10.5029 17.8418 11.1421C18.2189 11.7812 18.8644 12.1008 19.7784 12.1008C20.5517 12.1008 21.143 11.9186 21.552 11.5543C21.9611 11.19 22.1784 10.6116 22.2039 9.81905H25.5499Z" fill="#656980"/>
<path d="M37.8119 3.18471H33.6223V14.5455H30.2572V3.18471H26.1443V0.586585H37.8119V3.18471Z" fill="#656980"/>
<path d="M42.826 14.5455H39.4705V0.586585H42.826V14.5455Z" fill="#656980"/>
<path d="M50.582 10.749L53.3623 0.586585H57.1205L52.4228 14.5455H48.7413L44.0819 0.586585H47.8113L50.582 10.749Z" fill="#656980"/>
<path d="M66.8035 8.63024H61.5114V11.957H67.7623V14.5455H58.1463V0.586585H67.7814V3.18471H61.5114V6.12798H66.8035V8.63024Z" fill="#656980"/>
<path d="M69.4756 14.5359V0.576998H73.1475C74.6495 0.576998 75.784 0.883788 76.5509 1.49737C77.3243 2.10456 77.711 2.98977 77.711 4.15302C77.711 4.99669 77.4969 5.69656 77.0686 6.25261C76.6404 6.80867 76.0364 7.1634 75.2567 7.31679C76.1387 7.43184 76.8737 7.81533 77.4617 8.46725C78.0497 9.11279 78.3437 9.8542 78.3437 10.6915C78.3437 11.8803 77.9571 12.8198 77.1837 13.5101C76.4167 14.194 75.3461 14.5359 73.972 14.5359H69.4756ZM69.9933 7.64276V14.0182H74.0295C75.2119 14.0182 76.1387 13.7274 76.8098 13.1458C77.4873 12.5578 77.826 11.7461 77.826 10.7107C77.826 9.82864 77.5001 9.1032 76.8481 8.53436C76.1962 7.95913 75.3238 7.66193 74.2308 7.64276H69.9933ZM69.9933 7.12505H73.3392C74.6111 7.12505 75.5698 6.88217 76.2154 6.39642C76.8609 5.90428 77.1837 5.1437 77.1837 4.11467C77.1837 2.13332 75.8766 1.12666 73.2625 1.09471H69.9933V7.12505Z" fill="white"/>
<path d="M91.2097 8.60147C91.2097 9.80946 90.9924 10.88 90.5578 11.8132C90.1296 12.7399 89.516 13.459 88.7171 13.9703C87.9181 14.4752 86.9978 14.7277 85.956 14.7277C84.3837 14.7277 83.1118 14.1684 82.1403 13.0499C81.1688 11.9314 80.683 10.423 80.683 8.52478V6.51147C80.683 5.30987 80.8971 4.2425 81.3254 3.30935C81.76 2.37619 82.3767 1.65715 83.1757 1.15223C83.981 0.640912 84.9014 0.385254 85.9368 0.385254C86.9786 0.385254 87.899 0.640912 88.6979 1.15223C89.5032 1.65715 90.1232 2.37939 90.5578 3.31893C90.9924 4.25209 91.2097 5.31627 91.2097 6.51147V8.60147ZM90.692 6.49229C90.692 4.80495 90.2638 3.45315 89.4074 2.43691C88.5509 1.41428 87.394 0.902962 85.9368 0.902962C84.4987 0.902962 83.3514 1.41108 82.495 2.42733C81.6385 3.43718 81.2103 4.81454 81.2103 6.5594V8.60147C81.2103 9.71359 81.402 10.6979 81.7855 11.5543C82.1754 12.4044 82.7283 13.0595 83.4441 13.5197C84.16 13.9799 84.9972 14.21 85.956 14.21C87.4132 14.21 88.5669 13.7019 89.4169 12.6856C90.267 11.6694 90.692 10.2824 90.692 8.52478V6.49229Z" fill="white"/>
<path d="M98.1317 7.01L102.638 0.576998H103.29L98.4577 7.41266L103.472 14.5359H102.829L98.1317 7.81533L93.4148 14.5359H92.7916L97.8057 7.41266L92.9738 0.576998H93.6257L98.1317 7.01Z" fill="white"/>
</svg>
