<svg width="55" height="15" viewBox="0 0 55 15" fill="none" xmlns="http://www.w3.org/2000/svg">
<path d="M11.2 14.6334V6.17337L8.14 12.3334H6.34L3.28 6.17337V14.6334H0V0.433374H3.56L7.24 7.85337L10.94 0.433374H14.48V14.6334H11.2Z" fill="white"/>
<path d="M21.7712 14.8334C20.5712 14.8334 19.5513 14.58 18.7113 14.0734C17.8846 13.5667 17.2513 12.9 16.8113 12.0734C16.3713 11.2467 16.1513 10.3534 16.1513 9.39338C16.1513 8.42004 16.3713 7.52004 16.8113 6.69338C17.2513 5.86671 17.8912 5.20004 18.7312 4.69337C19.5712 4.18671 20.5846 3.93337 21.7712 3.93337C22.9579 3.93337 23.9713 4.18671 24.8113 4.69337C25.6513 5.20004 26.2913 5.86671 26.7313 6.69338C27.1713 7.52004 27.3913 8.42004 27.3913 9.39338C27.3913 10.3534 27.1713 11.2467 26.7313 12.0734C26.2913 12.9 25.6513 13.5667 24.8113 14.0734C23.9713 14.58 22.9579 14.8334 21.7712 14.8334ZM19.4313 9.39338C19.4313 10.2067 19.6513 10.8667 20.0913 11.3734C20.5446 11.88 21.1046 12.1334 21.7712 12.1334C22.4246 12.1334 22.9712 11.88 23.4112 11.3734C23.8646 10.8667 24.0913 10.2067 24.0913 9.39338C24.0913 8.58004 23.8646 7.92004 23.4112 7.41337C22.9712 6.90671 22.4246 6.65337 21.7712 6.65337C21.1046 6.65337 20.5446 6.90671 20.0913 7.41337C19.6513 7.92004 19.4313 8.58004 19.4313 9.39338Z" fill="white"/>
<path d="M35.2583 14.7334C34.325 14.7334 33.4449 14.56 32.6183 14.2134C31.8049 13.8534 31.0783 13.3534 30.4383 12.7134C29.8116 12.06 29.3183 11.2934 28.9583 10.4134C28.6116 9.52004 28.4383 8.52671 28.4383 7.43338C28.4383 6.44671 28.6116 5.52671 28.9583 4.67337C29.3183 3.82004 29.8183 3.06671 30.4583 2.41337C31.1116 1.76004 31.865 1.25337 32.7183 0.893374C33.585 0.52004 34.5183 0.333374 35.5183 0.333374C36.8249 0.333374 37.9716 0.613375 38.9583 1.17337C39.9583 1.73337 40.705 2.48671 41.1983 3.43338L38.7583 5.27338C38.4383 4.64671 37.9716 4.15337 37.3583 3.79337C36.745 3.43338 36.0916 3.25337 35.3983 3.25337C34.6783 3.25337 34.045 3.44671 33.4983 3.83337C32.9516 4.20671 32.5249 4.72004 32.2183 5.37338C31.9116 6.02671 31.7583 6.75338 31.7583 7.55338C31.7583 8.36671 31.9183 9.10004 32.2383 9.75338C32.5583 10.3934 32.9983 10.9 33.5583 11.2734C34.1316 11.6334 34.7916 11.8134 35.5383 11.8134C36.8183 11.8134 37.9716 11.2267 38.9983 10.0534V9.59338H36.2383V7.21338H41.7183V14.6334H38.9983V13.2334C37.9183 14.2334 36.6716 14.7334 35.2583 14.7334Z" fill="white"/>
<path d="M48.6267 14.8334C47.4267 14.8334 46.4067 14.58 45.5667 14.0734C44.7401 13.5667 44.1067 12.9 43.6667 12.0734C43.2267 11.2467 43.0067 10.3534 43.0067 9.39338C43.0067 8.42004 43.2267 7.52004 43.6667 6.69338C44.1067 5.86671 44.7467 5.20004 45.5867 4.69337C46.4267 4.18671 47.4401 3.93337 48.6267 3.93337C49.8134 3.93337 50.8267 4.18671 51.6667 4.69337C52.5067 5.20004 53.1467 5.86671 53.5867 6.69338C54.0267 7.52004 54.2467 8.42004 54.2467 9.39338C54.2467 10.3534 54.0267 11.2467 53.5867 12.0734C53.1467 12.9 52.5067 13.5667 51.6667 14.0734C50.8267 14.58 49.8134 14.8334 48.6267 14.8334ZM46.2867 9.39338C46.2867 10.2067 46.5067 10.8667 46.9467 11.3734C47.4001 11.88 47.9601 12.1334 48.6267 12.1334C49.2801 12.1334 49.8267 11.88 50.2667 11.3734C50.7201 10.8667 50.9467 10.2067 50.9467 9.39338C50.9467 8.58004 50.7201 7.92004 50.2667 7.41337C49.8267 6.90671 49.2801 6.65337 48.6267 6.65337C47.9601 6.65337 47.4001 6.90671 46.9467 7.41337C46.5067 7.92004 46.2867 8.58004 46.2867 9.39338Z" fill="white"/>
</svg>
