<svg width="16" height="16" viewBox="0 0 16 16" fill="none" xmlns="http://www.w3.org/2000/svg">
<path d="M14.8846 0.563965H1.34615C1.12174 0.563965 0.906517 0.653113 0.747833 0.811798C0.589148 0.970482 0.5 1.1857 0.5 1.41012V14.9486C0.5 15.173 0.589148 15.3882 0.747833 15.5469C0.906517 15.7056 1.12174 15.7947 1.34615 15.7947H14.8846C15.109 15.7947 15.3243 15.7056 15.4829 15.5469C15.6416 15.3882 15.7308 15.173 15.7308 14.9486V1.41012C15.7308 1.1857 15.6416 0.970482 15.4829 0.811798C15.3243 0.653113 15.109 0.563965 14.8846 0.563965ZM5.01762 13.5414H2.75669V6.27296H5.01762V13.5414ZM3.88715 5.28043C3.53976 5.28043 3.2066 5.14243 2.96095 4.89678C2.71531 4.65114 2.57731 4.31797 2.57731 3.97058C2.57731 3.62319 2.71531 3.29002 2.96095 3.04438C3.2066 2.79874 3.53976 2.66073 3.88715 2.66073C4.23455 2.66073 4.56771 2.79874 4.81335 3.04438C5.059 3.29002 5.197 3.62319 5.197 3.97058C5.197 4.31797 5.059 4.65114 4.81335 4.89678C4.56771 5.14243 4.23455 5.28043 3.88715 5.28043ZM13.4783 13.5414H11.2199V10.007C11.2199 9.16427 11.2047 8.08035 10.0455 8.08035C8.86931 8.08035 8.69077 8.99927 8.69077 9.94781V13.5423H6.43408V6.27381H8.60023V7.2672H8.63154C8.93192 6.69604 9.66977 6.09358 10.7672 6.09358C13.0552 6.09358 13.4775 7.59804 13.4775 9.55604V13.5414H13.4783Z" fill="#C6CBCD"/>
</svg>
