<svg width="17" height="14" viewBox="0 0 17 14" fill="none" xmlns="http://www.w3.org/2000/svg">
<path d="M15.2448 3.39174C15.2558 3.53892 15.2558 3.68526 15.2558 3.8316C15.2558 8.31006 11.8471 13.4706 5.61762 13.4706C3.6984 13.4706 1.91543 12.9147 0.415039 11.9492C0.687531 11.9803 0.949931 11.9912 1.23336 11.9912C2.75813 11.9949 4.23973 11.485 5.43933 10.5438C4.73238 10.531 4.04707 10.2978 3.4791 9.87667C2.91112 9.45555 2.48883 8.86757 2.27118 8.19484C2.4806 8.22596 2.69085 8.24698 2.9112 8.24698C3.21481 8.24698 3.52011 8.20493 3.80353 8.13176C3.03631 7.97686 2.34643 7.561 1.85119 6.9549C1.35595 6.34881 1.08592 5.58989 1.08702 4.80719V4.76514C1.53865 5.0166 2.06261 5.17387 2.61769 5.1949C2.15267 4.8859 1.77138 4.46659 1.50782 3.9744C1.24426 3.4822 1.10663 2.93242 1.1072 2.3741C1.1072 1.74501 1.27457 1.16807 1.56809 0.665138C2.41932 1.71223 3.481 2.56885 4.68437 3.17952C5.88774 3.79018 7.20595 4.14128 8.55365 4.21006C8.5015 3.95775 8.46954 3.69619 8.46954 3.43379C8.46932 2.98886 8.55679 2.54824 8.72696 2.13713C8.89713 1.72603 9.14665 1.35249 9.46127 1.03787C9.77589 0.723253 10.1494 0.473729 10.5605 0.303562C10.9716 0.133395 11.4123 0.0459219 11.8572 0.046143C12.8328 0.046143 13.7133 0.454881 14.3323 1.11593C15.0907 0.969267 15.818 0.692405 16.482 0.297609C16.2292 1.08045 15.6996 1.74426 14.9925 2.16469C15.6652 2.08797 16.3226 1.91108 16.9429 1.63989C16.4796 2.31531 15.9055 2.9076 15.2448 3.39174Z" fill="#C6CBCD"/>
</svg>
